<svg width="13" height="10" fill="none" xmlns="http://www.w3.org/2000/svg"><g clip-path="url(#a)"><path d="M2 .5h9A1.5 1.5 0 0 1 12.5 2v.992c0 .097-.074.18-.171.19-2.235.249-2.235 3.498 0 3.747.097.01.171.093.171.19v.992a1.5 1.5 0 0 1-1.5 1.5H2a1.5 1.5 0 0 1-1.5-1.5V2A1.5 1.5 0 0 1 2 .5Z" stroke="#3483FA"/><path d="m8.176 4.205-1.342-.108a.134.134 0 0 1-.125-.09l-.5-1.251a.354.354 0 0 0-.662 0l-.501 1.252a.134.134 0 0 1-.125.09l-1.342.089c-.321.018-.447.429-.196.626l1.02.858c.035.036.053.09.053.143l-.34 1.324c-.072.304.268.554.537.393l1.144-.715a.134.134 0 0 1 .161 0l1.145.715a.36.36 0 0 0 .536-.393L7.3 5.832c-.017-.054 0-.107.054-.143l1.037-.876c.233-.197.108-.59-.214-.608Z" fill="#3483FA"/></g><defs><clipPath id="a"><path fill="#fff" d="M0 0h13v10H0z"/></clipPath></defs></svg>